<svg xmlns="http://www.w3.org/2000/svg" width="64" height="64" version="1.1" viewBox="0 0 1024 1024"><g transform="translate(512 512) scale(8.24 8.24)"><line x1="-46" x2="46" y1="0" y2="0" transform="translate(0 -32.49)" style="stroke:#1e1d6e;stroke-width:2;stroke-dasharray:none;stroke-linecap:round;stroke-linejoin:round;stroke-miterlimit:10;fill:#1e1d6e;fill-rule:nonzero;opacity:1"/><line x1="0" x2="0" y1="-32.49" y2="32.49" transform="translate(46 0)" style="stroke:#1e1d6e;stroke-width:2;stroke-dasharray:none;stroke-linecap:round;stroke-linejoin:round;stroke-miterlimit:10;fill:#1e1d6e;fill-rule:nonzero;opacity:1"/><line x1="46" x2="-46" y1="0" y2="0" transform="translate(0 32.49)" style="stroke:#1e1d6e;stroke-width:2;stroke-dasharray:none;stroke-linecap:round;stroke-linejoin:round;stroke-miterlimit:10;fill:#1e1d6e;fill-rule:nonzero;opacity:1"/><line x1="0" x2="0" y1="32.49" y2="-32.49" transform="translate(-46 0)" style="stroke:#1e1d6e;stroke-width:2;stroke-dasharray:none;stroke-linecap:round;stroke-linejoin:round;stroke-miterlimit:10;fill:#1e1d6e;fill-rule:nonzero;opacity:1"/><line x1="0" x2="0" y1="-32.49" y2="32.49" transform="translate(0 0)" style="stroke:#1e1d6e;stroke-width:.7087;stroke-dasharray:none;stroke-linecap:round;stroke-linejoin:round;stroke-miterlimit:10;fill:#1e1d6e;fill-rule:nonzero;opacity:1"/><line x1="-23" x2="23" y1="0" y2="0" transform="translate(-23 0)" style="stroke:#1e1d6e;stroke-width:.7087;stroke-dasharray:none;stroke-linecap:round;stroke-linejoin:round;stroke-miterlimit:10;fill:#1e1d6e;fill-rule:nonzero;opacity:1"/><line x1="0" x2="0" y1="-16.245" y2="16.245" transform="translate(-23 16.245)" style="stroke:#1e1d6e;stroke-width:.7087;stroke-dasharray:none;stroke-linecap:round;stroke-linejoin:round;stroke-miterlimit:10;fill:#1e1d6e;fill-rule:nonzero;opacity:1"/><line x1="11.5" x2="-11.5" y1="0" y2="0" transform="translate(-34.5 16.245)" style="stroke:#1e1d6e;stroke-width:.7087;stroke-dasharray:none;stroke-linecap:round;stroke-linejoin:round;stroke-miterlimit:10;fill:#1e1d6e;fill-rule:nonzero;opacity:1"/><line x1="0" x2="0" y1="-8.122" y2="8.122" transform="translate(-34.5 24.3675)" style="stroke:#1e1d6e;stroke-width:.7087;stroke-dasharray:none;stroke-linecap:round;stroke-linejoin:round;stroke-miterlimit:10;fill:#1e1d6e;fill-rule:nonzero;opacity:1"/><line x1="5.75" x2="-5.75" y1="0" y2="0" transform="translate(-40.25 24.367)" style="stroke:#1e1d6e;stroke-width:.7087;stroke-dasharray:none;stroke-linecap:round;stroke-linejoin:round;stroke-miterlimit:10;fill:#1e1d6e;fill-rule:nonzero;opacity:1"/><line x1="0" x2="0" y1="-4.061" y2="4.061" transform="translate(-40.25 28.4285)" style="stroke:#1e1d6e;stroke-width:.7087;stroke-dasharray:none;stroke-linecap:round;stroke-linejoin:round;stroke-miterlimit:10;fill:#1e1d6e;fill-rule:nonzero;opacity:1"/><line x1="2.875" x2="-2.875" y1="0" y2="0" transform="translate(-43.125 28.429)" style="stroke:#1e1d6e;stroke-width:.7087;stroke-dasharray:none;stroke-linecap:round;stroke-linejoin:round;stroke-miterlimit:10;fill:#1e1d6e;fill-rule:nonzero;opacity:1"/></g></svg>